<svg xmlns="http://www.w3.org/2000/svg" fill="none" viewBox="0 0 226 275">
  <path fill="#A4C639" fill-rule="evenodd" d="M186 63.32c0 .226-.001.453-.004.68H39.004a55.12 55.12 0 0 1-.004-.68c0-12.828 4.427-24.764 12.038-34.737a2.003 2.003 0 0 1-.278-.196L24.714 6.532a2 2 0 0 1 2.572-3.064L53.33 25.323c.072.06.139.125.2.193C66.931 10.029 88.356 0 112.5 0c25.047 0 47.168 10.793 60.438 27.276l23.689-23.69a2 2 0 0 1 2.829 2.828l-24.042 24.042a3.68 3.68 0 0 1-.045.044C182.115 40.07 186 51.304 186 63.32ZM91 37c0 4.418-3.806 8-8.5 8S74 41.418 74 37s3.806-8 8.5-8 8.5 3.582 8.5 8Zm61 0c0 4.418-3.806 8-8.5 8s-8.5-3.582-8.5-8 3.806-8 8.5-8 8.5 3.582 8.5 8Zm34.951 33.579-148-.19-.18 137.891c-.01 8.285 6.696 15.009 14.98 15.02l5.249.006V259.5c0 8.56 6.94 15.5 15.5 15.5 8.56 0 15.5-6.94 15.5-15.5v-36.154l46 .059V259.5c0 8.56 6.94 15.5 15.5 15.5 8.56 0 15.5-6.94 15.5-15.5v-36.055l4.751.006c8.285.011 15.009-6.696 15.02-14.98l.18-137.892ZM195 103.857c0-8.56 6.94-15.5 15.5-15.5 8.56 0 15.5 6.94 15.5 15.5v86.148c0 8.561-6.94 15.5-15.5 15.5-8.56 0-15.5-6.939-15.5-15.5v-86.148Zm-195 0c0-8.56 6.94-15.5 15.5-15.5 8.56 0 15.5 6.94 15.5 15.5v86.148c0 8.561-6.94 15.5-15.5 15.5-8.56 0-15.5-6.939-15.5-15.5v-86.148Z" clip-rule="evenodd"/>
</svg>
